ply
format ascii 1.0
comment author: vikas
comment object: test
element vertex 298
property float x
property float y
property float z
property uchar red
property uchar green
property uchar blue
end_header
0.36736274 -1.0138347 -0.003291741 0 0 0
0.62182903 -1.0078596 -0.03450486 8 8 8
0.27996412 -0.99147177 0.11262722 28 28 28
0.2736886 -0.97747207 0.17778015 45 45 45
0.3538542 -0.9881556 -0.020224527 5 5 5
0.32046774 -0.9849365 -0.007776931 1 1 1
0.24633801 -0.98124707 -0.008033097 2 2 2
0.3424313 -0.98198795 -0.011313543 2 2 2
0.16655648 -0.98938954 0.0112326 2 2 2
0.6534055 -1.0696758 -0.14377467 36 36 36
0.24883816 -0.9774375 0.0992177 25 25 25
0.31849188 -1.0056472 0.09792951 24 24 24
0.37346947 -0.98740697 -0.022321522 5 5 5
0.18899575 -0.9864954 -0.0045571923 1 1 1
0.20503286 -1.0102216 0.027633592 7 7 7
1.094694 -0.95303285 -0.6298934 160 160 160
0.6084379 -1.0036738 -0.040414646 10 10 10
0.26853606 -0.9933043 0.07580925 19 19 19
0.2669837 -0.9875756 0.17103605 43 43 43
0.32214165 -1.0160115 -0.07955432 20 20 20
0.2781818 -0.9860658 0.18771373 47 47 47
0.34629267 -0.9957723 -0.027239412 6 6 6
0.31435958 -0.9996 -0.015575141 3 3 3
0.23929563 -0.9912011 -0.015085518 3 3 3
0.15896258 -0.9928673 0.005072862 1 1 1
0.24148367 -0.98387676 0.09254666 23 23 23
0.366911 -0.999427 -0.029965252 7 7 7
0.18176727 -0.9952685 -0.011353314 2 2 2
1.0991393 -0.97735447 -0.6488281 165 165 165
0.4487064 -0.3707 -0.17185551 43 43 43
0.16307697 -0.85537 -0.19319995 49 49 49
0.33791888 -0.98336995 -0.04283099 10 10 10
0.14485607 -1.0141305 -0.19654691 50 50 50
0.14816362 -0.8715523 -0.18354444 46 46 46
0.41823694 -1.0029207 -0.05694464 14 14 14
0.03461533 -0.38474807 -0.53568745 136 136 136
0.042213783 -1.0358677 -0.17246494 43 43 43
-0.044582274 -0.8663907 -0.2936238 74 74 74
-0.03581576 -0.86406815 -0.28150737 71 71 71
0.34282035 -0.98962307 -0.15943508 40 40 40
-0.12688328 -0.99688935 -0.3163419 80 80 80
0.27276134 -0.9931729 -0.034228012 8 8 8
0.16820553 -0.38731405 -0.29346728 74 74 74
0.23057356 -0.85265577 -0.1800149 45 45 45
0.3490667 -0.9823518 -0.07211056 18 18 18
0.34675765 -0.98074925 -0.07441714 18 18 18
0.22921824 -0.9941894 -0.05795832 14 14 14
0.38947508 -0.9882504 -0.12454763 31 31 31
0.21695176 -0.8887098 -0.18342231 46 46 46
0.04599683 -0.9890882 -0.16384356 41 41 41
0.030323368 -1.0003135 -0.20033507 51 51 51
0.020044185 -0.39318427 -0.29376006 74 74 74
0.3320822 -0.99717 -0.1457378 37 37 37
0.025560852 -0.39503774 -0.28611648 72 72 72
0.20930722 -0.87605363 -0.19427297 49 49 49
0.07321482 -1.0035452 -0.25225815 64 64 64
-0.11895211 -0.98804116 -0.32685742 83 83 83
0.056260638 -1.0067143 -0.21881162 55 55 55
-0.16806412 -0.98286915 -0.34910437 89 89 89
-0.05704294 -1.0109718 -0.24953271 63 63 63
-0.20193902 -0.9882734 -0.34741324 88 88 88
0.34449992 -1.0093333 -0.07698657 19 19 19
0.37975606 -0.99165714 -0.1359494 34 34 34
0.019029263 -0.38563043 -0.27806216 70 70 70
-0.05074118 -0.39218506 -0.25697201 65 65 65
-0.038114652 -0.8733739 -0.2908556 74 74 74
-0.0293345 -0.8716467 -0.2787555 71 71 71
0.18903244 -0.8940075 -0.19149286 48 48 48
0.052430682 -0.99869156 -0.15781826 40 40 40
0.054484442 -1.0270969 -0.23329066 59 59 59
0.24316615 -0.3923059 -0.26985532 68 68 68
0.19998857 -0.41242146 -0.32806596 83 83 83
0.1072528 -1.0132428 -0.21108773 53 53 53
0.011778265 -1.0121206 -0.18910134 48 48 48
-0.013691373 -1.0206077 -0.22843294 58 58 58
0.26285705 -0.2784719 -0.30191493 76 76 76
0.20500752 -0.39608473 -0.17579956 44 44 44
0.35765064 -1.0122412 -0.0041995943 1 1 1
0.4534936 -1.0314478 -0.113560915 28 28 28
0.21569854 -0.39642304 -0.17622441 44 44 44
0.27514043 -1.0104506 -0.078150555 19 19 19
0.16604206 -0.88387316 -0.19711843 50 50 50
0.22446987 -0.38705575 -0.30902094 78 78 78
-0.03656081 -1.032997 -0.25046045 63 63 63
0.36258107 -0.97805107 -0.051172182 13 13 13
0.31885093 -0.97748744 -0.05781565 14 14 14
0.4574262 -0.9748428 -0.15306179 39 39 39
0.35748786 -0.9659277 -0.050886124 12 12 12
0.38313383 -0.98633325 -0.081462175 20 20 20
0.46017647 -0.97344136 -0.22323203 56 56 56
0.414235 -0.97185636 -0.21841216 55 55 55
0.36225837 -0.9714998 -0.15747857 40 40 40
0.33421725 -0.97788763 -0.1514383 38 38 38
0.2902342 -0.9454842 -0.13383715 34 34 34
0.30242229 -0.9256633 -0.17433503 44 44 44
0.16854747 -0.97302246 -0.16410327 41 41 41
0.17106311 -0.83131 -0.18287154 46 46 46
0.15776998 -0.8408842 -0.17816046 45 45 45
0.19562133 -0.9263921 -0.24937722 63 63 63
0.23020937 -0.89970297 -0.19882607 50 50 50
0.09788591 -0.9732996 -0.29788643 75 75 75
0.10525066 -0.9737656 -0.32019114 81 81 81
0.08604336 -0.96116316 -0.29861048 76 76 76
-0.047816277 -0.9690852 -0.18081489 46 46 46
0.23142786 -0.72156125 -0.22959948 58 58 58
0.06863186 -0.9943205 -0.3321205 84 84 84
0.10724284 -0.96006495 -0.3039391 77 77 77
-0.014493629 -0.94878006 -0.18585992 47 47 47
-0.048443053 -0.96301067 -0.18266812 46 46 46
0.014032334 -0.7279616 -0.291644 74 74 74
0.02165693 -0.38939646 -0.28944543 73 73 73
0.02195482 -0.38902926 -0.28612056 72 72 72
0.21034703 -0.30175114 -0.31638482 80 80 80
0.019470805 -1.0512347 -0.14974304 38 38 38
0.22912838 -0.82083243 -0.22495535 57 57 57
0.2271682 -0.4355309 -0.3437876 87 87 87
0.36185363 -1.0428286 -0.21499829 54 54 54
0.2688137 -1.0029016 -0.29327023 74 74 74
0.18090248 -0.906341 -0.19927794 50 50 50
0.2230795 -0.32772753 -0.32592708 83 83 83
0.063971765 -1.0206847 -0.1825102 46 46 46
0.2236181 -0.36756745 -0.34084392 86 86 86
0.23806769 -1.0601469 -0.15620334 39 39 39
0.2208968 -0.758716 -0.22910668 58 58 58
0.24959068 -1.030755 -0.048572116 12 12 12
0.06601895 -1.0481758 -0.15692836 40 40 40
0.24325646 -0.98613703 -0.22314489 56 56 56
0.05875566 -1.0393945 -0.16625658 42 42 42
0.07942844 -1.0479838 -0.17089178 43 43 43
-0.029360281 -0.9298828 -0.2611488 66 66 66
-0.1814035 -1.016677 -0.29892924 76 76 76
-0.26976612 -1.0089115 -0.26802927 68 68 68
-0.19547653 -1.0213244 -0.30006546 76 76 76
-0.25247905 -1.0158916 -0.29183668 74 74 74
-0.2847818 -1.0115904 -0.2789877 71 71 71
0.035462506 -1.0440018 -0.16560079 42 42 42
-0.24883501 -1.0221884 -0.3043338 77 77 77
-0.26924503 -1.0180788 -0.28193742 71 71 71
-0.10668947 -1.0515159 -0.3275037 83 83 83
0.06657055 -0.3846568 -0.27256882 69 69 69
0.3672886 -1.0677122 -0.19072244 48 48 48
-0.26399395 -1.0107305 -0.30050766 76 76 76
-0.29991528 -1.0149024 -0.27617258 70 70 70
0.053947102 -1.0396137 -0.2116831 53 53 53
-0.096938804 -1.0483723 -0.23894417 60 60 60
-0.18950184 -1.0025736 -0.38077182 97 97 97
0.33191615 -1.0337648 -0.02447648 6 6 6
0.06977557 -1.0263499 -0.10987688 28 28 28
0.086856425 -1.0109675 -0.08949321 22 22 22
0.07037805 -1.0257461 -0.07585768 19 19 19
0.07313509 -1.0262613 -0.10668746 27 27 27
0.4029616 -1.0395813 -0.024198677 6 6 6
0.18833084 -1.0463814 -0.088396624 22 22 22
0.39984334 -1.0416352 -0.047982525 12 12 12
0.27361315 -1.0246371 0.014851243 3 3 3
0.2426595 -1.02343 -0.06795465 17 17 17
0.35207295 -1.0420398 -0.052563142 13 13 13
0.37800607 -1.0418447 -0.057374325 14 14 14
0.30369705 -1.0315572 -0.013492722 3 3 3
0.10855237 -1.0204138 -0.067900546 17 17 17
0.40251094 -1.0433016 -0.06323703 16 16 16
0.10071266 -1.0380964 -0.08024869 20 20 20
0.24656141 -0.42327076 -0.30379134 77 77 77
0.23041394 -0.41003436 -0.16978315 43 43 43
0.24087423 -0.8733763 -0.22523627 57 57 57
-0.04587049 -1.0049276 -0.39446118 100 100 100
0.37731636 -1.0532968 -0.14890069 37 37 37
0.2241568 -0.39458898 -0.17067944 43 43 43
0.2203865 -0.7984444 -0.2165112 55 55 55
0.23011997 -0.90638715 -0.19067734 48 48 48
0.18220055 -0.9011931 -0.18236272 46 46 46
0.14250305 -0.9185628 -0.22282043 56 56 56
-0.03119696 -0.858181 -0.3238231 82 82 82
-0.047281798 -1.0385183 -0.40581036 103 103 103
0.03392714 -0.45425448 -0.217122 55 55 55
0.40185502 -1.0340309 -0.056859456 14 14 14
0.24713933 -0.4124291 -0.2789612 71 71 71
0.30606195 -1.0291196 0.004943371 1 1 1
0.46430832 -1.0356578 -0.10387438 26 26 26
0.3654659 -1.0107826 -0.021613598 5 5 5
0.29336593 -1.0952474 -0.044816405 11 11 11
0.2476489 -1.036829 -0.121194266 30 30 30
0.07283325 -1.0333 -0.07570315 19 19 19
0.018946504 -1.0047975 -0.15029286 38 38 38
0.02833982 -0.97641265 -0.19203795 48 48 48
-0.053039268 -1.003905 -0.16357347 41 41 41
0.06382495 -1.0321517 0.0049365684 1 1 1
0.071682245 -1.0293036 -0.07498203 19 19 19
-0.24423948 -1.0572613 -0.14199744 36 36 36
-0.22203855 -1.0570413 -0.1446582 36 36 36
0.0067132805 -1.0355132 -0.09124352 23 23 23
-0.06147465 -1.0476412 -0.16836679 42 42 42
-0.14334983 -1.0531751 -0.15967466 40 40 40
-0.1637544 -1.0527998 -0.16013654 40 40 40
-0.21247742 -1.0536754 -0.17381562 44 44 44
-0.2282478 -1.0675282 -0.13122255 33 33 33
-0.28986245 -1.0727487 -0.2860111 72 72 72
0.06698379 -1.043506 -0.0055868104 1 1 1
-0.17497823 -1.0460502 -0.1457755 37 37 37
-0.27389035 -1.0525708 -0.2154885 54 54 54
-0.13900147 -1.0385438 -0.14759491 37 37 37
-0.02091979 -1.0371045 -0.13900602 35 35 35
-0.059222903 -1.0351171 -0.14920273 38 38 38
-0.08334527 -1.0745245 -0.17966129 45 45 45
-0.3021521 -1.0652976 -0.2189656 55 55 55
-0.26138073 -1.0534551 -0.20173137 51 51 51
-0.039992675 -1.0399603 -0.15423656 39 39 39
-0.062129058 -1.023466 -0.1529032 38 38 38
-0.3000802 -1.0576569 -0.29325432 74 74 74
-0.19158779 -1.0475484 -0.1435059 36 36 36
-0.041135862 -1.0329809 -0.14082178 35 35 35
-0.28813925 -1.0772243 -0.29969585 76 76 76
0.25585154 -0.42115465 -0.26875445 68 68 68
0.24146909 -0.41505 -0.28459373 72 72 72
0.2368671 -0.9192002 -0.17768842 45 45 45
0.03741005 -0.39139125 -0.28275752 72 72 72
0.07125196 -0.48440668 -0.32723445 83 83 83
0.01730755 -1.0378097 -0.14793736 37 37 37
-0.061610036 -1.0385178 -0.16641903 42 42 42
-0.012290016 -1.0386916 -0.17285796 44 44 44
0.23787934 -0.3986524 -0.29697713 75 75 75
0.056833528 -0.4015846 -0.26361474 67 67 67
0.2575807 -0.35837665 -0.27917317 71 71 71
-0.0013804212 -1.0320362 -0.18514025 47 47 47
0.18045808 -0.89491546 -0.17626981 44 44 44
0.06187947 -1.0291933 -0.15318707 39 39 39
0.3536256 -1.0372123 -0.20336524 51 51 51
0.24997053 -0.9376955 -0.26879677 68 68 68
0.21642482 -0.7930006 -0.21000567 53 53 53
0.3979484 -1.036329 -0.20932043 53 53 53
0.17556323 -0.8947183 -0.19226497 49 49 49
0.05902069 -1.0204835 -0.18056954 46 46 46
0.03305307 -1.0283619 -0.16172372 41 41 41
-0.28726584 -1.0460644 -0.42610443 108 108 108
0.105520874 -0.93922865 -0.20017132 51 51 51
0.054779038 -1.0353572 -0.16404568 41 41 41
0.10953252 -1.06267 -0.3133331 79 79 79
-0.29884356 -1.057891 -0.25289306 64 64 64
0.24992232 -0.3878076 -0.2583759 65 65 65
0.25252938 -0.3952096 -0.2561367 65 65 65
0.2396404 -0.43093508 -0.29730797 75 75 75
0.2637074 -0.2776534 -0.2830592 72 72 72
0.27796036 -0.29155988 -0.29120606 74 74 74
0.25802135 -0.29268986 -0.34331387 87 87 87
0.31691474 -0.35873848 -0.40472314 103 103 103
0.25052917 -0.2876066 -0.34751162 88 88 88
0.21533976 -0.3119502 -0.32064506 81 81 81
0.26923555 -0.33908147 -0.27271217 69 69 69
0.28969967 -0.30392534 -0.31078574 79 79 79
0.18004921 -0.9030336 -0.17704758 45 45 45
0.21725608 -0.7985767 -0.21111396 53 53 53
0.06632431 -0.99711466 -0.22428703 57 57 57
0.05977302 -1.020391 -0.17998026 45 45 45
0.2485138 -0.2925896 -0.31749862 80 80 80
0.23366414 -0.32994848 -0.33129722 84 84 84
0.25083935 -0.38016468 -0.27504313 70 70 70
0.295268 -0.29331148 -0.29835308 76 76 76
0.23966168 -0.34162474 -0.30109832 76 76 76
0.018070191 -1.031345 -0.18520245 47 47 47
0.2474675 -0.9535177 -0.2734543 69 69 69
0.21755357 -0.29031792 -0.34308988 87 87 87
0.31815434 -0.359846 -0.40397817 103 103 103
0.2537119 -0.29200482 -0.3493885 89 89 89
0.21299648 -0.30561823 -0.31489193 80 80 80
0.06676093 -0.9898238 -0.2217609 56 56 56
0.06039591 -1.0145726 -0.17809129 45 45 45
0.2934869 -0.28981704 -0.2946191 75 75 75
0.24112289 -0.3289559 -0.25288835 64 64 64
0.23961484 -0.32953614 -0.25349075 64 64 64
0.24240518 -0.9291823 -0.2661443 67 67 67
0.2493253 -0.35943598 -0.25475922 64 64 64
0.25332093 -0.7703395 -0.20198998 51 51 51
0.07730868 -1.0011663 -0.17331028 44 44 44
0.022231271 -1.0603827 -0.138302 35 35 35
0.06050487 -1.0120829 -0.1501759 38 38 38
0.3426023 -0.9687941 -0.1373244 35 35 35
0.06737059 -1.0172938 -0.10628416 27 27 27
0.32960445 -0.9774072 -0.19346637 49 49 49
0.3453452 -0.95001805 -0.1932244 49 49 49
0.22953555 -0.962481 -0.21374813 54 54 54
0.30030516 -0.92570245 -0.20036721 51 51 51
-0.13401036 -1.0066019 -0.38736215 98 98 98
-0.08443837 -0.98558843 -0.38424814 97 97 97
0.2253195 -0.8702533 -0.20418331 52 52 52
0.062973194 -1.0341986 -0.22679493 57 57 57
-0.0651706 -1.0125508 -0.39371052 100 100 100
0.15579586 -1.0017802 -0.18197948 46 46 46
0.1301092 -1.021802 -0.18260008 46 46 46
0.03281891 -1.0452195 -0.16339701 41 41 41
0.106035836 -1.0363057 -0.30464655 77 77 77
0.33486363 -0.97668934 -0.12617502 32 32 32
0.060679935 -1.0245538 -0.19185069 48 48 48
-0.1513391 -0.9941788 -0.36459193 92 92 92
0.09138474 -1.0310675 -0.11381751 29 29 29
0.179652 -0.90134543 -0.17935911 45 45 45
0.014872573 -1.0234114 -0.1469442 37 37 37
0.17802374 -0.8937448 -0.17514539 44 44 44
0.32814065 -0.38100046 -0.2671756 68 68 68
