ply
format ascii 1.0
comment author: vikas
comment object: test
element vertex 302
property float x
property float y
property float z
property uchar red
property uchar green
property uchar blue
end_header
0.348 0.276 -0.546 255 0 0
0.13 0.60 0.79  255 0 0
0.348 0.276 -0.544 255 0 0
0.13 0.60 0.79  255 0 0
0.349 0.277 -0.542 255 0 0
0.13 0.59 0.79  255 0 0
0.349 0.277 -0.539 255 0 0
0.12 0.59 0.79  255 0 0
0.350 0.277 -0.537 255 0 0
0.12 0.59 0.80  255 0 0
0.350 0.278 -0.536 255 0 0
0.12 0.59 0.80  255 0 0
0.350 0.278 -0.534 255 0 0
0.12 0.59 0.80  255 0 0
0.351 0.278 -0.532 255 0 0
0.12 0.59 0.80  255 0 0
0.351 0.279 -0.529 255 0 0
0.12 0.59 0.80  255 0 0
0.351 0.279 -0.527 255 0 0
0.12 0.59 0.80  255 0 0
0.352 0.279 -0.525 255 0 0
0.11 0.58 0.80  255 0 0
0.352 0.279 -0.523 255 0 0
0.11 0.58 0.81  255 0 0
0.352 0.280 -0.521 255 0 0
0.11 0.58 0.81  255 0 0
0.353 0.280 -0.519 255 0 0
0.11 0.57 0.81  255 0 0
0.353 0.281 -0.517 255 0 0
0.11 0.57 0.81  255 0 0
0.354 0.282 -0.514 255 0 0
0.10 0.57 0.81  255 0 0
0.354 0.282 -0.512 255 0 0
0.10 0.57 0.81  255 0 0
0.355 0.283 -0.510 255 0 0
0.10 0.57 0.81  255 0 0
0.356 0.283 -0.507 255 0 0
0.10 0.57 0.81  255 0 0
0.356 0.284 -0.505 255 0 0
0.10 0.57 0.81  255 0 0
0.357 0.284 -0.503 255 0 0
0.10 0.57 0.82  255 0 0
0.357 0.285 -0.501 255 0 0
0.10 0.57 0.82  255 0 0
0.358 0.286 -0.499 255 0 0
0.10 0.57 0.82  255 0 0
0.359 0.286 -0.496 255 0 0
0.09 0.56 0.82  255 0 0
0.359 0.287 -0.495 255 0 0
0.09 0.56 0.82  255 0 0
0.360 0.288 -0.492 255 0 0
0.09 0.56 0.82  255 0 0
0.360 0.289 -0.490 255 0 0
0.09 0.56 0.82  255 0 0
0.360 0.289 -0.488 255 0 0
0.09 0.56 0.82  255 0 0
0.361 0.290 -0.486 255 0 0
0.09 0.56 0.82  255 0 0
0.361 0.291 -0.484 255 0 0
0.09 0.56 0.82  255 0 0
0.362 0.292 -0.482 255 0 0
0.09 0.56 0.82  255 0 0
0.362 0.293 -0.480 255 0 0
0.08 0.56 0.82  255 0 0
0.362 0.293 -0.478 255 0 0
0.08 0.56 0.83  255 0 0
0.363 0.294 -0.476 255 0 0
0.08 0.55 0.83  255 0 0
0.363 0.295 -0.474 255 0 0
0.08 0.55 0.83  255 0 0
0.364 0.295 -0.473 255 0 0
0.08 0.55 0.83  255 0 0
0.364 0.296 -0.471 255 0 0
0.08 0.55 0.83  255 0 0
0.364 0.296 -0.469 255 0 0
0.08 0.55 0.83  255 0 0
0.365 0.297 -0.467 255 0 0
0.07 0.55 0.83  255 0 0
0.365 0.297 -0.466 255 0 0
0.07 0.55 0.83  255 0 0
0.365 0.297 -0.464 255 0 0
0.07 0.55 0.83  255 0 0
0.366 0.298 -0.463 255 0 0
0.07 0.55 0.83  255 0 0
0.366 0.299 -0.461 255 0 0
0.07 0.55 0.83  255 0 0
0.366 0.299 -0.460 255 0 0
0.07 0.55 0.83  255 0 0
0.366 0.299 -0.458 255 0 0
0.07 0.55 0.83  255 0 0
0.367 0.299 -0.457 255 0 0
0.07 0.55 0.83  255 0 0
0.367 0.299 -0.455 255 0 0
0.06 0.55 0.83  255 0 0
0.368 0.300 -0.454 255 0 0
0.06 0.55 0.83  255 0 0
0.368 0.300 -0.453 255 0 0
0.06 0.55 0.83  255 0 0
0.368 0.300 -0.452 255 0 0
0.06 0.55 0.83  255 0 0
0.369 0.299 -0.451 255 0 0
0.06 0.55 0.83  255 0 0
0.369 0.299 -0.450 255 0 0
0.06 0.55 0.83  255 0 0
0.369 0.299 -0.449 255 0 0
0.06 0.55 0.83  255 0 0
0.370 0.300 -0.448 255 0 0
0.06 0.54 0.84  255 0 0
0.370 0.299 -0.447 255 0 0
0.06 0.54 0.84  255 0 0
0.370 0.299 -0.446 255 0 0
0.06 0.54 0.84  255 0 0
0.371 0.299 -0.445 255 0 0
0.06 0.54 0.84  255 0 0
0.371 0.299 -0.445 255 0 0
0.06 0.54 0.84  255 0 0
0.371 0.299 -0.444 255 0 0
0.06 0.54 0.84  255 0 0
0.372 0.299 -0.445 255 0 0
0.06 0.54 0.84  255 0 0
0.372 0.299 -0.444 255 0 0
0.06 0.54 0.84  255 0 0
0.372 0.300 -0.444 255 0 0
0.06 0.54 0.84  255 0 0
0.372 0.300 -0.443 255 0 0
0.05 0.54 0.84  255 0 0
0.372 0.300 -0.443 255 0 0
0.05 0.54 0.84  255 0 0
0.372 0.300 -0.443 255 0 0
0.05 0.54 0.84  255 0 0
0.372 0.300 -0.443 255 0 0
0.05 0.54 0.84  255 0 0
0.372 0.300 -0.443 255 0 0
0.06 0.54 0.84  255 0 0
0.372 0.300 -0.443 255 0 0
0.06 0.53 0.84  255 0 0
0.372 0.300 -0.442 255 0 0
0.06 0.53 0.84  255 0 0
0.372 0.301 -0.442 255 0 0
0.05 0.53 0.84  255 0 0
0.373 0.301 -0.442 255 0 0
0.05 0.53 0.84  255 0 0
0.373 0.301 -0.442 255 0 0
0.05 0.53 0.84  255 0 0
0.373 0.301 -0.442 255 0 0
0.05 0.53 0.84  255 0 0
0.373 0.301 -0.442 255 0 0
0.05 0.53 0.84  255 0 0
0.373 0.301 -0.442 255 0 0
0.06 0.53 0.84  255 0 0
0.373 0.302 -0.442 255 0 0
0.06 0.53 0.84  255 0 0
0.373 0.302 -0.441 255 0 0
0.06 0.53 0.84  255 0 0
0.373 0.302 -0.442 255 0 0
0.06 0.54 0.84  255 0 0
0.373 0.302 -0.442 255 0 0
0.06 0.54 0.84  255 0 0
0.373 0.303 -0.442 255 0 0
0.06 0.54 0.84  255 0 0
0.373 0.303 -0.441 255 0 0
0.06 0.54 0.84  255 0 0
0.373 0.303 -0.441 255 0 0
0.06 0.54 0.84  255 0 0
0.373 0.303 -0.441 255 0 0
0.06 0.54 0.84  255 0 0
0.373 0.303 -0.441 255 0 0
0.06 0.53 0.84  255 0 0
0.372 0.302 -0.442 255 0 0
0.06 0.53 0.84  255 0 0
0.372 0.302 -0.442 255 0 0
0.06 0.53 0.84  255 0 0
0.372 0.302 -0.442 255 0 0
0.06 0.53 0.84  255 0 0
0.372 0.302 -0.442 255 0 0
0.06 0.53 0.84  255 0 0
0.371 0.303 -0.442 255 0 0
0.06 0.53 0.84  255 0 0
0.372 0.303 -0.442 255 0 0
0.06 0.53 0.84  255 0 0
0.371 0.304 -0.442 255 0 0
0.06 0.53 0.84  255 0 0
0.371 0.304 -0.442 255 0 0
0.06 0.53 0.84  255 0 0
0.371 0.304 -0.442 255 0 0
0.06 0.53 0.84  255 0 0
0.371 0.304 -0.442 255 0 0
0.06 0.53 0.84  255 0 0
0.371 0.304 -0.442 255 0 0
0.06 0.53 0.84  255 0 0
0.371 0.304 -0.442 255 0 0
0.06 0.53 0.84  255 0 0
0.371 0.304 -0.442 255 0 0
0.06 0.53 0.84  255 0 0
0.371 0.304 -0.442 255 0 0
0.06 0.53 0.84  255 0 0
0.371 0.304 -0.442 255 0 0
0.05 0.53 0.84  255 0 0
0.372 0.303 -0.442 255 0 0
0.05 0.53 0.85  255 0 0
0.372 0.303 -0.442 255 0 0
0.05 0.53 0.85  255 0 0
0.372 0.303 -0.442 255 0 0
0.05 0.53 0.85  255 0 0
0.372 0.303 -0.442 255 0 0
0.05 0.53 0.85  255 0 0
0.372 0.303 -0.442 255 0 0
0.05 0.53 0.85  255 0 0
0.372 0.302 -0.442 255 0 0
0.05 0.53 0.85  255 0 0
0.372 0.302 -0.441 255 0 0
0.05 0.53 0.85  255 0 0
0.372 0.302 -0.441 255 0 0
0.05 0.53 0.85  255 0 0
0.372 0.302 -0.441 255 0 0
0.05 0.53 0.85  255 0 0
0.372 0.302 -0.441 255 0 0
0.05 0.53 0.85  255 0 0
0.372 0.302 -0.441 255 0 0
0.05 0.53 0.85  255 0 0
0.372 0.303 -0.441 255 0 0
0.05 0.53 0.84  255 0 0
0.373 0.303 -0.441 255 0 0
0.05 0.53 0.84  255 0 0
0.373 0.303 -0.441 255 0 0
0.05 0.53 0.84  255 0 0
0.373 0.303 -0.442 255 0 0
0.05 0.53 0.84  255 0 0
0.373 0.303 -0.441 255 0 0
0.05 0.53 0.84  255 0 0
0.373 0.303 -0.441 255 0 0
0.05 0.53 0.84  255 0 0
0.373 0.303 -0.441 255 0 0
0.05 0.53 0.84  255 0 0
0.373 0.303 -0.441 255 0 0
0.05 0.53 0.84  255 0 0
0.373 0.303 -0.441 255 0 0
0.05 0.53 0.84  255 0 0
0.372 0.304 -0.441 255 0 0
0.05 0.53 0.84  255 0 0
0.372 0.304 -0.441 255 0 0
0.05 0.53 0.84  255 0 0
0.372 0.304 -0.441 255 0 0
0.05 0.53 0.84  255 0 0
0.372 0.303 -0.440 255 0 0
0.05 0.53 0.84  255 0 0
0.372 0.303 -0.440 255 0 0
0.05 0.53 0.84  255 0 0
0.372 0.303 -0.440 255 0 0
0.05 0.53 0.84  255 0 0
0.372 0.303 -0.440 255 0 0
0.05 0.53 0.84  255 0 0
0.372 0.303 -0.440 255 0 0
0.05 0.53 0.84  255 0 0
0.371 0.303 -0.440 255 0 0
0.05 0.53 0.84  255 0 0
0.371 0.303 -0.439 255 0 0
0.05 0.53 0.84  255 0 0
0.371 0.303 -0.439 255 0 0
0.05 0.53 0.84  255 0 0
0.371 0.303 -0.439 255 0 0
0.05 0.53 0.84  255 0 0
0.371 0.303 -0.439 255 0 0
0.05 0.53 0.84  255 0 0
0.371 0.303 -0.439 255 0 0
0.05 0.53 0.84  255 0 0
0.371 0.303 -0.439 255 0 0
0.05 0.53 0.84  255 0 0
0.371 0.302 -0.439 255 0 0
0.05 0.53 0.84  255 0 0
0.371 0.302 -0.439 255 0 0
0.05 0.53 0.84  255 0 0
0.371 0.302 -0.439 255 0 0
0.06 0.53 0.84  255 0 0
0.372 0.302 -0.439 255 0 0
0.06 0.53 0.84  255 0 0
0.372 0.302 -0.439 255 0 0
0.06 0.53 0.84  255 0 0
0.372 0.302 -0.439 255 0 0
0.06 0.53 0.84  255 0 0
0.371 0.302 -0.439 255 0 0
0.06 0.53 0.84  255 0 0
0.371 0.301 -0.439 255 0 0
0.06 0.53 0.84  255 0 0
0.371 0.301 -0.439 255 0 0
0.06 0.53 0.85  255 0 0
0.371 0.302 -0.439 255 0 0
0.05 0.53 0.85  255 0 0
0.371 0.301 -0.439 255 0 0
0.05 0.53 0.85  255 0 0
0.371 0.301 -0.439 255 0 0
0.05 0.53 0.85  255 0 0
0.371 0.301 -0.439 255 0 0
0.05 0.53 0.85  255 0 0
0.371 0.301 -0.439 255 0 0
0.05 0.53 0.85  255 0 0
0.371 0.301 -0.438 255 0 0
0.06 0.53 0.85  255 0 0
0.371 0.302 -0.439 255 0 0
0.06 0.53 0.84  255 0 0
0.371 0.302 -0.438 255 0 0
0.06 0.53 0.84  255 0 0
